<svg id="Layer_1" data-name="Layer 1" xmlns="http://www.w3.org/2000/svg" viewBox="0 0 780 577"><defs><style>.cls-1{fill:#fdb827;}.cls-2{fill:#127681;}</style></defs><path class="cls-1" d="M402.12,318.54c2.06-1.89,4.13-3.75,6.17-5.66-2-2-3.73-4.18-5.74-6.13-1.76,1.72-3.6,3.35-5.43,5-1.37-1.57-2.8-3.09-4.19-4.65-2,2-4.2,3.71-6.13,5.74,1.88,2,3.7,4.07,5.59,6.08,1.88-1.6,3.6-3.38,5.52-4.94C399.29,315.51,400.68,317.05,402.12,318.54Z"/><path class="cls-1" d="M358.16,133.13c-2-2-3.88-4-5.82-5.95-2,1.91-3.94,3.95-6,5.81,1.93,2,3.91,4,5.88,6C354.16,137,356.25,135.16,358.16,133.13Z"/><path class="cls-1" d="M358.16,184.37c-2-2-4-3.9-6-5.94-2,2-3.91,4-5.89,5.94,1.48,1.54,3,3.06,4.57,4.5-1.49,1.56-3.07,3-4.51,4.64,2,1.94,3.95,3.92,6,5.85,1.89-2,3.88-4,5.84-5.94-1.47-1.54-3.05-3-4.54-4.49C355.1,187.36,356.6,185.83,358.16,184.37Z"/><path class="cls-1" d="M346.37,233.11c1.95,2,4,4,6,5.93q2.86-3,5.82-5.91c-1.41-1.62-3.09-3-4.52-4.6,1.56-1.45,3-3.05,4.53-4.51-2-2-4-3.88-5.95-5.91-2,2-4,4-5.94,6.06,1.63,1.39,3.05,3,4.63,4.42C349.36,230,347.94,231.65,346.37,233.11Z"/><path class="cls-2" d="M379,172c-5.59-3.7-11.42-7.74-14.58-13.85-2.06-3.84-2.33-8.23-2.89-12.47.27,7.49.43,15,1.35,22.44,1,6.89,5.56,12.6,11,16.64a66.88,66.88,0,0,0,6.52,4.57c7.73,4.76,15.66,9.2,23.38,14,7.36,4.48,14.22,10.36,18.14,18.18,2.91,5.81,4.49,12.74,2.61,19.13-1.74,6.06-6.6,10.79-12.15,13.52-2.6,1.42-5.55,1.88-8.37,2.64A26.75,26.75,0,0,0,417.68,254a23.4,23.4,0,0,0,10.41-12,36.37,36.37,0,0,0,2.24-20.76c-1.41-7.63-5.63-14.42-10.56-20.28l0,0a66.6,66.6,0,0,0-17.52-15c-.5-10.46.25-21.58-4.86-31.11a20.44,20.44,0,0,0-6.75-7.29c-3.07-1.92-6.18-3.75-9.27-5.62-3.59-2.36-7.43-4.36-10.8-7l-.15,0c-2.49-2.08-5-4.34-6.28-7.37-.75-1.53-.85-3.26-1.47-4.83-.31,6.42-.54,13,1,19.26a18.42,18.42,0,0,0,7.43,9.94c3.12,2.26,6.46,4.19,9.72,6.25,2.75,1.66,5.42,3.5,8.3,4.94,3.2,2.05,6.42,4.37,8.34,7.76,2.49,3.92,2.43,8.77,1.73,13.2C392.46,180.06,385.57,176.27,379,172Z"/><path class="cls-2" d="M468.57,276.42a27.18,27.18,0,0,0-23.64-18.6h0c-1-.37-3.62-.24-5.65-.05l-.41,0h-.07l-.45,0c-.18,0-.37,0-.55.06s-.36,0-.55.08l-.49.07-.94.19c-10.69,2.19-25.63,11.46-33.41,16.65v-.94l-.29-5.5c-.3-2-.08-4.09-.21-6.12-.38-5.36.1-10.73-.24-16.09-.36-7.16-.43-14.36-1.53-21.46-.8-5.3-2.46-10.8-6.27-14.74h-.08a26.37,26.37,0,0,0-9.83-5.87c-3.86-1.78-7.84-3.34-11.34-5.79a29.1,29.1,0,0,1-10.21-12.22,56.74,56.74,0,0,1-1.61-5.49c-.08,1.92.22,3.83.25,5.75.25,4.41.17,8.89,1.23,13.22l0,.06a30.57,30.57,0,0,0,2.95,6.94,42.21,42.21,0,0,0,2.64,3.61h0c5.33,6.23,13.28,9,20.54,12.28a22.45,22.45,0,0,1,7.85,5.88,18.17,18.17,0,0,1,4.18,13.37,23.52,23.52,0,0,0-3.29-5.87c-4.27-5.39-10.35-8.91-16.48-11.81-5.81-2.75-12-5.3-16.43-10.11a19.15,19.15,0,0,1-3.58-5.51c-.31,2.72.17,5.45.18,8.18-.25,6.57.24,13.15.63,19.72.37,5.21.72,10.51,2.48,15.46,1.41,3.43,5.07,4.88,8.1,6.56,5.45,3.07,11.38,5.16,16.91,8.07a24.88,24.88,0,0,1,8.23,7.11V285l-.05,7.61c.25-.46.52-.92.79-1.37h0A43.49,43.49,0,0,1,410,279.1a41.14,41.14,0,0,1,5.49-4.9c8.62-6.4,18.77-8.71,27.38-7.06H443l.15.05a22.93,22.93,0,0,1,14.19,8.68c8.63,11.64,3.91,29.76-10.55,40.48a39.49,39.49,0,0,1-8.81,5q-2.68,1.5-5.51,2.73c-41.51,20.28-75.84-9.13-76.63-9.82v0c-.85-.55-1.68-1.12-2.51-1.68-3.43-2.27-6.3-5.24-9.24-8.07l0-.11a79,79,0,0,1-12.52-16.45c-8.76-17.49-12.33-36.46-12.33-36.46l-.24,2.11c.51,4,1.1,7.91,1.88,11.83v0a79.79,79.79,0,0,0,4.51,15.43c.9,2.24,1.91,4.43,3,6.58l.23.43.05.09a96.74,96.74,0,0,0,19.41,26.4h0a83,83,0,0,0,56.31,22.78c2.47,0,3.88-.15,3.88-.15h0a61.87,61.87,0,0,0,7.31-.48,74.17,74.17,0,0,0,29.33-10.55,62.19,62.19,0,0,0,17.18-15.5C469.12,300.85,472.78,287.9,468.57,276.42ZM400.52,263a16.58,16.58,0,0,1-1.74-2.65,33.26,33.26,0,0,0-7.09-8.36,37.31,37.31,0,0,0-10.1-5.52A93.89,93.89,0,0,1,366,238.56a7.52,7.52,0,0,1-3.54-5.62,31.75,31.75,0,0,1-.58-6.82c2.91,6.29,9.17,9.95,15.17,12.81,7.46,3.57,15.62,6.77,20.89,13.47C400.41,255.32,401,259.3,400.52,263Z"/><path class="cls-2" d="M115.05,394.73c0-4.5,3.5-7.28,9.66-8l-.19-.19c-4.19-3.59-7-9-7-13.31,0-2.11,6-4.46,11.51-4.46s11.51,2.39,11.51,4.46c0,4-2.79,9.68-7,13.31h9.35v2.88h-13v-2.88c2.58-5.06,4.5-11.58,4.5-14.35,0,0-1.5-1.26-5.34-1.26s-5.32,1.26-5.32,1.29c0,2.79,1.9,9.28,4.45,14.32v2.88c-3.72.05-6.42,1.69-6.42,5.37,0,3.42,3.52,5.25,7.41,5.25a36.67,36.67,0,0,0,6.86-.68l.52,2.2-1.43.35a51.83,51.83,0,0,1-9.33,1C119,402.87,115.05,399.68,115.05,394.73Z"/><path class="cls-2" d="M140.6,386.51H150v2.88H140.6Z"/><path class="cls-2" d="M147.63,386.51H157v2.88h-9.35Z"/><path class="cls-2" d="M154.66,386.51H164v2.88h-9.35Z"/><path class="cls-2" d="M161.69,386.51h9.36v2.88h-9.36Z"/><path class="cls-2" d="M168.7,386.51h7V369.23h5.77v20.16H168.7Zm3,8.29a3.14,3.14,0,0,1,3.32-3.07,3.08,3.08,0,0,1,3.28,3.07,3,3,0,0,1-3.28,3A3.07,3.07,0,0,1,171.66,394.8Zm7.26,0a3.15,3.15,0,0,1,3.33-3.07,3.08,3.08,0,0,1,3.28,3.07,3,3,0,0,1-3.28,3A3.08,3.08,0,0,1,178.92,394.8Z"/><path class="cls-2" d="M185.34,397.5a15.32,15.32,0,0,0,2.72-1.34,14.62,14.62,0,0,0,2-1.47,9.51,9.51,0,0,0,2.67-5.81c.09-.87.16-1.65.19-2.33s0-1.52,0-2.57V369.23h5.77v14.21c0,1.15,0,2.15-.1,3-.4,4.71-1.87,7.43-4.83,9.49a18.82,18.82,0,0,1-3.07,1.67,30.55,30.55,0,0,1-4.15,1.38Zm7.12-34.1a3.15,3.15,0,0,1,3.33-3.07,3.08,3.08,0,0,1,3.28,3.07,3,3,0,0,1-3.28,3A3.08,3.08,0,0,1,192.46,363.4Z"/><path class="cls-2" d="M227,389.39h-2.79a10.37,10.37,0,0,1-4.38,6.56,19.7,19.7,0,0,1-3.07,1.67,30.55,30.55,0,0,1-4.15,1.38l-1.2-1.5a15,15,0,0,0,2.72-1.34,14,14,0,0,0,2-1.47,9.51,9.51,0,0,0,2.67-5.81c.1-.87.17-1.65.19-2.33s0-1.52,0-2.57V372.12h-3.84c-4.2,0-6,2.67-6,6,0,4.64,3.84,7.78,8.11,8.37v2.88c-4-.49-8.11-1.78-10.73-4.29-2.16-2-3.38-4.1-3.38-7,0-6,3.61-9.38,11.77-9.38h9.84v14.7c0,1.15,0,2.15-.09,3v.05H227Z"/><path class="cls-2" d="M224.71,386.51h9.35v2.88h-9.35Z"/><path class="cls-2" d="M231.74,386.51h9.35v2.88h-9.35Z"/><path class="cls-2" d="M238.77,386.51h9.35v2.88h-9.35Z"/><path class="cls-2" d="M263.26,386.51v2.88H245.78v-2.88h7V369.23h5.77v17.28ZM248.83,363.4a3.14,3.14,0,0,1,3.32-3.07,3.08,3.08,0,0,1,3.29,3.07,3,3,0,0,1-3.29,3A3.08,3.08,0,0,1,248.83,363.4Zm7.26,0a3.15,3.15,0,0,1,3.33-3.07,3.08,3.08,0,0,1,3.28,3.07,3,3,0,0,1-3.28,3A3.08,3.08,0,0,1,256.09,363.4Z"/><path class="cls-2" d="M260.94,386.51h9.36v2.88h-9.36Z"/><path class="cls-2" d="M268,386.51h9.36v2.88H268Z"/><path class="cls-2" d="M275,386.51h9.35v2.88H275Z"/><path class="cls-2" d="M282,386.51h7V359.62h5.79v29.77H282Z"/><path class="cls-2" d="M299.31,359.62h5.79v29.77h-5.79Z"/><path class="cls-2" d="M338.29,368.74v14.7c0,1.15,0,2.15-.09,3-.4,4.71-1.88,7.43-4.83,9.49a19.7,19.7,0,0,1-3.07,1.67,30.55,30.55,0,0,1-4.15,1.38l-1.2-1.5a14.67,14.67,0,0,0,2.72-1.34,14,14,0,0,0,2-1.47,9.51,9.51,0,0,0,2.67-5.81c.1-.87.17-1.65.19-2.33s0-1.52,0-2.57V372.12h-3.84c-4.19,0-6,2.67-6,6,0,4.64,3.84,7.78,8.11,8.37v2.88c-4-.49-8.11-1.78-10.73-4.29-2.16-2-3.38-4.1-3.38-7,0-6,3.61-9.38,11.77-9.38Z"/><path class="cls-2" d="M363.19,389.39h-2.86A10.37,10.37,0,0,1,356,396a19.7,19.7,0,0,1-3.07,1.67,31,31,0,0,1-4.15,1.38l-1.2-1.5a15,15,0,0,0,2.72-1.34,14.62,14.62,0,0,0,2-1.47,9.51,9.51,0,0,0,2.67-5.81c.1-.87.17-1.65.19-2.33s0-1.52,0-2.57V369.23h5.77v14.21c0,1.15,0,2.15-.1,3v.05h2.42Z"/><path class="cls-2" d="M360.87,386.51h9.35v2.88h-9.35Z"/><path class="cls-2" d="M367.9,386.51h9.35v2.88H367.9Z"/><path class="cls-2" d="M374.93,386.51h9.35v2.88h-9.35Z"/><path class="cls-2" d="M382,386.51h9.35v2.88H382Z"/><path class="cls-2" d="M430.27,386.51v2.88H389v-2.88h7v-16.6h5.77v16.6H408v-16.6h5.77v16.6h1.87c4.53,0,6.5-3.63,6.5-9.73a19.39,19.39,0,0,0-1.67-8h5.56a23.9,23.9,0,0,1,1.87,9.1c0,3.82-.7,6.72-2.41,8.67ZM402.82,363.4a3.15,3.15,0,0,1,3.33-3.07,3.08,3.08,0,0,1,3.28,3.07,3,3,0,0,1-3.28,3A3.08,3.08,0,0,1,402.82,363.4Zm4.76-6.52a3.14,3.14,0,0,1,3.33-3.07,3.08,3.08,0,0,1,3.28,3.07,3,3,0,0,1-3.28,3A3.07,3.07,0,0,1,407.58,356.88Zm8.18,3.45A3.08,3.08,0,0,1,419,363.4a3,3,0,0,1-3.28,3,3.08,3.08,0,0,1-3.33-3A3.15,3.15,0,0,1,415.76,360.33Z"/><path class="cls-2" d="M445.41,386.51v2.88H427.92v-2.88h7V369.23h5.77v17.28ZM434.53,363.4a3.15,3.15,0,0,1,3.33-3.07,3.08,3.08,0,0,1,3.28,3.07,3,3,0,0,1-3.28,3A3.08,3.08,0,0,1,434.53,363.4Z"/><path class="cls-2" d="M443.09,386.51h9.35v2.88h-9.35Z"/><path class="cls-2" d="M450.12,386.51h9.35v2.88h-9.35Z"/><path class="cls-2" d="M457.15,386.51h9.35v2.88h-9.35Z"/><path class="cls-2" d="M464.18,386.51h9.35v2.88h-9.35Z"/><path class="cls-2" d="M488.67,386.51v2.88H471.19v-2.88h7V359.62H484v26.89Z"/><path class="cls-2" d="M486.35,386.51h9.35v2.88h-9.35Z"/><path class="cls-2" d="M493.38,386.51h9.35v2.88h-9.35Z"/><path class="cls-2" d="M500.39,386.51h7V359.62h5.79v29.77h-12.8Z"/><path class="cls-2" d="M567.12,386.51v2.88h-8.34V378.14c0-3.35-1.8-6-6-6H549v17.27H537.48c-10,0-12.71-4-12.71-9.91a23.47,23.47,0,0,1,1.88-8.56h5.55a18.77,18.77,0,0,0-1.66,7.5c0,4.46,2,8.09,8.39,8.09h4.24V368.74H553c8.16,0,11.77,3.42,11.77,9.38v8.39Zm-30.21,8.29a3,3,0,0,1-3.28,3,3.08,3.08,0,0,1-3.33-3,3.15,3.15,0,0,1,3.33-3.07A3.08,3.08,0,0,1,536.91,394.8Zm7.27,0a3,3,0,0,1-3.28,3,3.08,3.08,0,0,1-3.33-3,3.15,3.15,0,0,1,3.33-3.07A3.08,3.08,0,0,1,544.18,394.8Z"/><path class="cls-2" d="M564.8,386.51h9.36v2.88H564.8Z"/><path class="cls-2" d="M601.86,386.51v2.88h-9.38a20.7,20.7,0,0,1-4.47-.47,20.86,20.86,0,0,1-4.48.47H571.81v-2.88H582.1c-3.47-2.28-5.6-5.65-5.6-9.33,0-5.44,4.69-8.44,11.51-8.44s11.51,3,11.51,8.44c0,3.68-2.14,7.05-5.61,9.33Zm-20.79-23.09a3.15,3.15,0,0,1,3.33-3.07,3.08,3.08,0,0,1,3.28,3.07,3,3,0,0,1-3.28,3A3.08,3.08,0,0,1,581.07,363.42Zm1.59,13.76c0,4.59,2,7.43,5.35,8.65,3.4-1.22,5.34-4.06,5.34-8.65,0-4-1.47-6.28-5.34-6.28S582.66,373.17,582.66,377.18Zm5.68-13.76a3.14,3.14,0,0,1,3.32-3.07,3.08,3.08,0,0,1,3.29,3.07,3,3,0,0,1-3.29,3A3.07,3.07,0,0,1,588.34,363.42Z"/><path class="cls-2" d="M599.54,386.51h9.35v2.88h-9.35Z"/><path class="cls-2" d="M606.57,386.51h9.35v2.88h-9.35Z"/><path class="cls-2" d="M613.58,386.51h7V369.23h5.77v20.16h-12.8Zm3-23.11a3.14,3.14,0,0,1,3.32-3.07,3.07,3.07,0,0,1,3.28,3.07,3,3,0,0,1-3.28,3A3.08,3.08,0,0,1,616.63,363.4Zm7.26,0a3.15,3.15,0,0,1,3.33-3.07,3.08,3.08,0,0,1,3.28,3.07,3,3,0,0,1-3.28,3A3.08,3.08,0,0,1,623.89,363.4Z"/><path class="cls-2" d="M646,389.39H643.1a10.33,10.33,0,0,1-4.38,6.56,18.82,18.82,0,0,1-3.07,1.67A30.55,30.55,0,0,1,631.5,399l-1.19-1.5a15.32,15.32,0,0,0,2.72-1.34,14.62,14.62,0,0,0,2-1.47,9.56,9.56,0,0,0,2.67-5.81c.09-.87.16-1.65.18-2.33s0-1.52,0-2.57V369.23h5.76v14.21c0,1.15,0,2.15-.09,3v.05H646Z"/><path class="cls-2" d="M643.64,386.51H653v2.88h-9.36Z"/><path class="cls-2" d="M650.68,386.51H660v2.88h-9.35Z"/><path class="cls-2" d="M657.71,386.51h9.35v2.88h-9.35Z"/><path class="cls-2" d="M664.71,386.51h7V369.23h5.76v20.16h-12.8Zm6.61-23.11a3.15,3.15,0,0,1,3.33-3.07,3.08,3.08,0,0,1,3.28,3.07,3,3,0,0,1-3.28,3A3.08,3.08,0,0,1,671.32,363.4Z"/><path class="cls-1" d="M123.24,431.73v-8.88a6.89,6.89,0,0,0-.84-3.57h3.12a4.58,4.58,0,0,1,.9,3.06v14.52a17.49,17.49,0,0,0,.3,3.84h-4a22.85,22.85,0,0,1-2.79-4.62q-4.23-9-5.58-11.7a25.86,25.86,0,0,1,.12,2.76v10a7.87,7.87,0,0,0,.81,3.57h-3.09a5.1,5.1,0,0,1-1-3.42V423.09q0-3-.93-3.81h4.89a5.77,5.77,0,0,1,2.34,2.88l5.13,11.07,1,2.19A25.47,25.47,0,0,1,123.24,431.73Z"/><path class="cls-1" d="M148.71,440.7h-4.35a8.31,8.31,0,0,1-1.8-3l-1.8-4.92h-5.88l-1.59,5a7.21,7.21,0,0,0-.39,2.13,2.55,2.55,0,0,0,.12.75h-3.45a4.85,4.85,0,0,1,0-.63,7.78,7.78,0,0,1,.45-2.43l5.37-14.88a8.3,8.3,0,0,0,.54-2.43,2.31,2.31,0,0,0-.24-1.05h3.48a6.35,6.35,0,0,1,2.22,3.3l5.37,14.76A10.24,10.24,0,0,0,148.71,440.7Zm-8.55-10.08-2.28-6.87v0l-2.31,6.84Z"/><path class="cls-1" d="M150.93,437.22V422.88a7.49,7.49,0,0,0-.78-3.6h7.32a8.11,8.11,0,0,1,5,1.5,4.73,4.73,0,0,1,2,3.93,4.88,4.88,0,0,1-1.32,3.75,7.21,7.21,0,0,1-3.15,1.71q1.89.87,3.51,5a23,23,0,0,0,1.62,3.45,8.46,8.46,0,0,0,1.74,2.07h-4.11q-1.59-1.2-3.06-5.25a27,27,0,0,0-1.23-3.12,3.73,3.73,0,0,0-1.05-1.37,2.6,2.6,0,0,0-1.5-.37h-1.14v6.54a8.38,8.38,0,0,0,.78,3.57h-3.72A5.17,5.17,0,0,1,150.93,437.22Zm3.9-8.61h.84a5.27,5.27,0,0,0,3.42-.84,3.52,3.52,0,0,0,1-2.82,3.36,3.36,0,0,0-1.29-2.88,5.36,5.36,0,0,0-3.15-.81h-1.08a5.17,5.17,0,0,1,.27,1.8Z"/><path class="cls-1" d="M175.86,422.79v14.34a7.87,7.87,0,0,0,.81,3.57H173a5.2,5.2,0,0,1-1-3.48V421.53H169A3.91,3.91,0,0,1,166,420.3a3.08,3.08,0,0,1-.6-1h13.32a4.12,4.12,0,0,1,2.67.78,4.44,4.44,0,0,1,1.38,2.46,7.91,7.91,0,0,0-2.1-.81,14.85,14.85,0,0,0-2.88-.21h-1.89Z"/><path class="cls-1" d="M201.12,440.7h-4.35a8.31,8.31,0,0,1-1.8-3l-1.8-4.92h-5.88l-1.59,5a7.21,7.21,0,0,0-.39,2.13,2.55,2.55,0,0,0,.12.75H182a4.85,4.85,0,0,1,0-.63,7.78,7.78,0,0,1,.45-2.43l5.37-14.88a8.3,8.3,0,0,0,.54-2.43,2.31,2.31,0,0,0-.24-1.05h3.48a6.35,6.35,0,0,1,2.22,3.3l5.37,14.76A10.24,10.24,0,0,0,201.12,440.7Zm-8.55-10.08-2.28-6.87v0L188,430.62Z"/><path class="cls-1" d="M220.26,447.15h-3.6a7.28,7.28,0,0,1-2.67-3.21l-1.59-3a4.82,4.82,0,0,1-1.17.15,9,9,0,0,1-7.56-3.63,11.69,11.69,0,0,1-2.31-7.35,12.27,12.27,0,0,1,1.2-5.4,10,10,0,0,1,3.39-4.05,9.18,9.18,0,0,1,5.28-1.59,9,9,0,0,1,5.19,1.59,10.27,10.27,0,0,1,3.48,4.05,11.68,11.68,0,0,1,1.29,5.4,12.27,12.27,0,0,1-1.62,6.33,9.45,9.45,0,0,1-3.69,3.63l.27.6Q218.46,445.8,220.26,447.15Zm-14.37-17a12.75,12.75,0,0,0,1.29,6.12,4.56,4.56,0,0,0,4.2,2.61q3.12,0,4.5-3.66a14,14,0,0,0,.81-4.89,13.72,13.72,0,0,0-1.26-6.27,4.4,4.4,0,0,0-4.05-2.76q-3.09,0-4.53,3.45A14,14,0,0,0,205.89,430.11Z"/><path class="cls-1" d="M224.64,437.22V422.85a7.87,7.87,0,0,0-.81-3.57h3.75a5.31,5.31,0,0,1,1,3.48v14.37a7.87,7.87,0,0,0,.81,3.57H225.6A5.31,5.31,0,0,1,224.64,437.22Z"/><path class="cls-1" d="M245.52,426.87h3.39a4.42,4.42,0,0,1,2.76.76,4.29,4.29,0,0,1,1.41,2.45,7.16,7.16,0,0,0-2.07-.8,16.06,16.06,0,0,0-2.88-.19h-2.61v8.07a7.8,7.8,0,0,0,.81,3.54h-3.75a5.26,5.26,0,0,1-1-3.45V422.64q0-2.55-1-3.36h9.72a4.29,4.29,0,0,1,2.7.75,3.74,3.74,0,0,1,1.35,2.4,7.71,7.71,0,0,0-2.05-.74,16.16,16.16,0,0,0-2.87-.19h-4.11a5.22,5.22,0,0,1,.15,1.53Z"/><path class="cls-1" d="M265.68,441.06a9,9,0,0,1-7.53-3.63,11.77,11.77,0,0,1-2.31-7.35,12.27,12.27,0,0,1,1.2-5.4,10,10,0,0,1,3.39-4.05,9,9,0,0,1,5.25-1.59,9.17,9.17,0,0,1,5.22,1.59,10.27,10.27,0,0,1,3.48,4.05,11.68,11.68,0,0,1,1.29,5.4,11.36,11.36,0,0,1-2.88,8.16A9.33,9.33,0,0,1,265.68,441.06Zm5.43-10.77a14,14,0,0,0-1.23-6.27,4.34,4.34,0,0,0-4-2.76q-3.09,0-4.53,3.48a13.77,13.77,0,0,0-1,5.37,12.56,12.56,0,0,0,1.29,6.09,4.55,4.55,0,0,0,4.2,2.64q3,0,4.32-3.27A13.62,13.62,0,0,0,271.11,430.29Z"/><path class="cls-1" d="M279.54,437.22V422.88a7.49,7.49,0,0,0-.78-3.6h7.32a8.11,8.11,0,0,1,5,1.5,4.73,4.73,0,0,1,2,3.93,4.88,4.88,0,0,1-1.32,3.75,7.21,7.21,0,0,1-3.15,1.71q1.89.87,3.51,5a23,23,0,0,0,1.62,3.45,8.46,8.46,0,0,0,1.74,2.07h-4.11q-1.59-1.2-3.06-5.25a27,27,0,0,0-1.23-3.12,3.73,3.73,0,0,0-1.05-1.37,2.6,2.6,0,0,0-1.5-.37h-1.14v6.54a8.38,8.38,0,0,0,.78,3.57H280.5A5.17,5.17,0,0,1,279.54,437.22Zm3.9-8.61h.84a5.27,5.27,0,0,0,3.42-.84,3.52,3.52,0,0,0,1-2.82,3.36,3.36,0,0,0-1.29-2.88,5.36,5.36,0,0,0-3.15-.81h-1.08a5.17,5.17,0,0,1,.27,1.8Z"/><path class="cls-1" d="M305.94,437.25V422.88a8.44,8.44,0,0,0-.78-3.6h7.89a6.57,6.57,0,0,1,4.62,1.71,5.26,5.26,0,0,1,1.77,4.05,5.46,5.46,0,0,1-2,4.32,6.88,6.88,0,0,1-4.68,1.59h-2.94v6.18a7.88,7.88,0,0,0,.84,3.57H307A5.11,5.11,0,0,1,305.94,437.25Zm3.9-8.28h2a2.89,2.89,0,0,0,2.76-1.47,5,5,0,0,0,.54-2.46,3.9,3.9,0,0,0-1-2.79,3.35,3.35,0,0,0-2.52-1h-2a5.54,5.54,0,0,1,.27,1.86Z"/><path class="cls-1" d="M323.16,437.22V422.88a7.49,7.49,0,0,0-.78-3.6h7.32a8.11,8.11,0,0,1,5,1.5,4.73,4.73,0,0,1,2,3.93,4.88,4.88,0,0,1-1.32,3.75,7.21,7.21,0,0,1-3.15,1.71q1.89.87,3.51,5a23,23,0,0,0,1.62,3.45,8.46,8.46,0,0,0,1.74,2.07H335q-1.59-1.2-3.06-5.25a27,27,0,0,0-1.23-3.12A3.73,3.73,0,0,0,329.7,431a2.6,2.6,0,0,0-1.5-.37h-1.14v6.54a8.38,8.38,0,0,0,.78,3.57h-3.72A5.17,5.17,0,0,1,323.16,437.22Zm3.9-8.61h.84a5.27,5.27,0,0,0,3.42-.84,3.52,3.52,0,0,0,1-2.82,3.36,3.36,0,0,0-1.29-2.88,5.36,5.36,0,0,0-3.15-.81h-1.08a5.17,5.17,0,0,1,.27,1.8Z"/><path class="cls-1" d="M341.7,437.22V422.85a7.87,7.87,0,0,0-.81-3.57h3.75a5.31,5.31,0,0,1,1,3.48v14.37a7.87,7.87,0,0,0,.81,3.57h-3.75A5.31,5.31,0,0,1,341.7,437.22Z"/><path class="cls-1" d="M363.09,431.73v-8.88a6.89,6.89,0,0,0-.84-3.57h3.12a4.58,4.58,0,0,1,.9,3.06v14.52a17.49,17.49,0,0,0,.3,3.84h-4a22.85,22.85,0,0,1-2.79-4.62q-4.23-9-5.58-11.7a25.86,25.86,0,0,1,.12,2.76v10a7.87,7.87,0,0,0,.81,3.57H352a5.1,5.1,0,0,1-1-3.42V423.09q0-3-.93-3.81H355a5.77,5.77,0,0,1,2.34,2.88l5.13,11.07,1,2.19A25.47,25.47,0,0,1,363.09,431.73Z"/><path class="cls-1" d="M379.11,422.79v14.34a7.87,7.87,0,0,0,.81,3.57H376.2a5.2,5.2,0,0,1-1-3.48V421.53h-2.94a3.91,3.91,0,0,1-3.06-1.23,3.08,3.08,0,0,1-.6-1h13.32a4.12,4.12,0,0,1,2.67.78,4.44,4.44,0,0,1,1.38,2.46,7.91,7.91,0,0,0-2.1-.81,14.85,14.85,0,0,0-2.88-.21h-1.89Z"/><path class="cls-1" d="M388.83,437.22V422.85a7.87,7.87,0,0,0-.81-3.57h3.75a5.31,5.31,0,0,1,1,3.48v14.37a7.87,7.87,0,0,0,.81,3.57h-3.75A5.31,5.31,0,0,1,388.83,437.22Z"/><path class="cls-1" d="M410.22,431.73v-8.88a6.89,6.89,0,0,0-.84-3.57h3.12a4.58,4.58,0,0,1,.9,3.06v14.52a17.49,17.49,0,0,0,.3,3.84h-4a22.85,22.85,0,0,1-2.79-4.62q-4.23-9-5.58-11.7a25.86,25.86,0,0,1,.12,2.76v10a7.87,7.87,0,0,0,.81,3.57h-3.09a5.1,5.1,0,0,1-1-3.42V423.09q0-3-.93-3.81h4.89a5.77,5.77,0,0,1,2.34,2.88l5.13,11.07,1,2.19A25.47,25.47,0,0,1,410.22,431.73Z"/><path class="cls-1" d="M433.47,428.73v8.43a7.34,7.34,0,0,0,.66,3.15q.06.09.21.39h-7.11a10.28,10.28,0,0,1-7.8-3.18,10.51,10.51,0,0,1-2.64-7.44,12,12,0,0,1,1.26-5.49,9.81,9.81,0,0,1,9.12-5.55,10.84,10.84,0,0,1,6.18,1.71l-1.08,2.91a9.45,9.45,0,0,0-2.42-1.83,5.5,5.5,0,0,0-2.47-.57,5.27,5.27,0,0,0-4.89,3,11.72,11.72,0,0,0-1.2,5.52,11,11,0,0,0,1.74,6.48,5.43,5.43,0,0,0,4.83,2.43h1.77v-.81l0-1.56v-4a7.88,7.88,0,0,0-.6-3.6Z"/><path class="cls-1" d="M462.72,440.7h-4.35a8.31,8.31,0,0,1-1.8-3l-1.8-4.92h-5.88l-1.59,5a7.21,7.21,0,0,0-.39,2.13,2.55,2.55,0,0,0,.12.75h-3.45a4.85,4.85,0,0,1,0-.63,7.78,7.78,0,0,1,.45-2.43l5.37-14.88a8.3,8.3,0,0,0,.54-2.43,2.31,2.31,0,0,0-.24-1.05h3.48a6.35,6.35,0,0,1,2.22,3.3l5.37,14.76A10.24,10.24,0,0,0,462.72,440.7Zm-8.55-10.08-2.28-6.87v0l-2.31,6.84Z"/><path class="cls-1" d="M477.45,431.73v-8.88a6.89,6.89,0,0,0-.84-3.57h3.12a4.58,4.58,0,0,1,.9,3.06v14.52a17.49,17.49,0,0,0,.3,3.84h-4a22.85,22.85,0,0,1-2.79-4.62q-4.23-9-5.58-11.7a25.86,25.86,0,0,1,.12,2.76v10a7.87,7.87,0,0,0,.81,3.57h-3.09a5.1,5.1,0,0,1-1-3.42V423.09q0-3-.93-3.81h4.89a5.77,5.77,0,0,1,2.34,2.88l5.13,11.07,1,2.19A25.47,25.47,0,0,1,477.45,431.73Z"/><path class="cls-1" d="M492,440.7h-5.4a5.13,5.13,0,0,1-.93-3.51V422.67a5,5,0,0,0-1-3.39H492a9.77,9.77,0,0,1,8,3.48,11.92,11.92,0,0,1,1.17,12.45,10,10,0,0,1-3.57,3.93A10.3,10.3,0,0,1,492,440.7Zm-2.22-2h1.95a5.33,5.33,0,0,0,4.89-3.18,11.93,11.93,0,0,0,1.26-5.67,9.94,9.94,0,0,0-1.89-6.33,6,6,0,0,0-4.89-2.28h-1.74a10.19,10.19,0,0,1,.21,1.92v13.38A7.86,7.86,0,0,0,489.75,438.72Z"/><path class="cls-1" d="M513.87,437.25V422.88a8.44,8.44,0,0,0-.78-3.6H521A6.57,6.57,0,0,1,525.6,421a5.26,5.26,0,0,1,1.77,4.05,5.46,5.46,0,0,1-2,4.32,6.88,6.88,0,0,1-4.68,1.59h-2.94v6.18a7.88,7.88,0,0,0,.84,3.57h-3.72A5.11,5.11,0,0,1,513.87,437.25Zm3.9-8.28h2a2.89,2.89,0,0,0,2.76-1.47A5,5,0,0,0,523,425a3.9,3.9,0,0,0-1-2.79,3.35,3.35,0,0,0-2.52-1h-2a5.54,5.54,0,0,1,.27,1.86Z"/><path class="cls-1" d="M531.09,434.19V422.88a9.14,9.14,0,0,0-.78-3.6H534a5.23,5.23,0,0,1,1,3.54V434a5.11,5.11,0,0,0,1.41,4,3.6,3.6,0,0,0,2.52.93,3.36,3.36,0,0,0,2.76-1.26,5.66,5.66,0,0,0,1.05-3.66V422.73a8.48,8.48,0,0,0-.14-1.71,11.2,11.2,0,0,0-.58-1.74h3.72a5.67,5.67,0,0,1,.9,3.45v11.46a6.33,6.33,0,0,1-2.25,5,8.22,8.22,0,0,1-5.61,1.86,7.67,7.67,0,0,1-6.06-2.37A6.62,6.62,0,0,1,531.09,434.19Z"/><path class="cls-1" d="M558.9,440.7h-6.33a5.73,5.73,0,0,1-1-3.54V422.67q0-2.52-1-3.39h8.16a7.61,7.61,0,0,1,4.5,1.29,4.29,4.29,0,0,1,1.89,3.69,4.72,4.72,0,0,1-.93,2.82,4.21,4.21,0,0,1-2.19,1.65q4.26,1.35,4.26,5.19a6.34,6.34,0,0,1-2.25,5.31A8.28,8.28,0,0,1,558.9,440.7Zm-3.39-13h2.43a3.05,3.05,0,0,0,2.58-1.23,3.75,3.75,0,0,0,.69-2.25q0-3-3.54-3h-2.4a6.68,6.68,0,0,1,.24,1.89Zm.21,11h1.83a4.55,4.55,0,0,0,3.63-1.29,5,5,0,0,0,1-3.39,4.44,4.44,0,0,0-1.26-3.33,3.68,3.68,0,0,0-2.67-1.05h-2.73v7.14A5.65,5.65,0,0,0,555.72,438.75Z"/><path class="cls-1" d="M570.36,437.22V422.85a7.87,7.87,0,0,0-.81-3.57h3.75a5.31,5.31,0,0,1,1,3.48v14.37a7.16,7.16,0,0,0,.09,1.35h4.53a15.86,15.86,0,0,0,2.86-.2,7.73,7.73,0,0,0,2.06-.73,3.67,3.67,0,0,1-4,3.15h-8.46A5.2,5.2,0,0,1,570.36,437.22Z"/><path class="cls-1" d="M587,437.22V422.85a7.87,7.87,0,0,0-.81-3.57h3.75a5.31,5.31,0,0,1,1,3.48v14.37a7.87,7.87,0,0,0,.81,3.57h-3.75A5.31,5.31,0,0,1,587,437.22Z"/><path class="cls-1" d="M595.2,439.14l1.53-3.51q2.76,3.21,4.83,3.21a3,3,0,0,0,2.34-1,2.92,2.92,0,0,0,.75-2q0-3.21-4.08-5.64a17.18,17.18,0,0,1-4-3.09,4.37,4.37,0,0,1-1-2.82,4.6,4.6,0,0,1,2.16-4.11,7.24,7.24,0,0,1,4.08-1.11,15.69,15.69,0,0,1,6.45,1.62L606.9,424q-2.76-2.76-4.71-2.76a2.69,2.69,0,0,0-1.89.72,2.21,2.21,0,0,0-.72,1.65q0,1.86,3.42,4a19.59,19.59,0,0,1,4.2,3.21,5.78,5.78,0,0,1,1.59,3.9,5.56,5.56,0,0,1-2.13,4.68,7.89,7.89,0,0,1-5.16,1.62A11.51,11.51,0,0,1,595.2,439.14Z"/><path class="cls-1" d="M613.17,437.22V422.85a7.87,7.87,0,0,0-.81-3.57h3.72a5.18,5.18,0,0,1,1,3.51v5.13h8.07v-5.07a7.87,7.87,0,0,0-.81-3.57h3.75a5.31,5.31,0,0,1,1,3.48v14.37a7.87,7.87,0,0,0,.81,3.57h-3.72a5.2,5.2,0,0,1-1-3.48v-7.08h-8.07v7a8,8,0,0,0,.78,3.6h-3.72A5.31,5.31,0,0,1,613.17,437.22Z"/><path class="cls-1" d="M634.35,437.22V422.85a7.87,7.87,0,0,0-.81-3.57h3.75a5.31,5.31,0,0,1,1,3.48v14.37a7.87,7.87,0,0,0,.81,3.57h-3.75A5.31,5.31,0,0,1,634.35,437.22Z"/><path class="cls-1" d="M655.74,431.73v-8.88a6.89,6.89,0,0,0-.84-3.57H658a4.58,4.58,0,0,1,.9,3.06v14.52a17.49,17.49,0,0,0,.3,3.84h-4a22.85,22.85,0,0,1-2.79-4.62q-4.23-9-5.58-11.7a25.86,25.86,0,0,1,.12,2.76v10a7.87,7.87,0,0,0,.81,3.57h-3.09a5.1,5.1,0,0,1-1-3.42V423.09q0-3-.93-3.81h4.89a5.77,5.77,0,0,1,2.34,2.88l5.13,11.07,1,2.19A24.13,24.13,0,0,1,655.74,431.73Z"/><path class="cls-1" d="M679,428.73v8.43a7.34,7.34,0,0,0,.66,3.15q.06.09.21.39h-7.11a10.28,10.28,0,0,1-7.8-3.18,10.51,10.51,0,0,1-2.64-7.44,12,12,0,0,1,1.26-5.49,10,10,0,0,1,3.58-4,10.16,10.16,0,0,1,5.54-1.53,10.84,10.84,0,0,1,6.18,1.71l-1.08,2.91a9.42,9.42,0,0,0-2.41-1.83,5.54,5.54,0,0,0-2.48-.57,5.25,5.25,0,0,0-4.88,3,11.6,11.6,0,0,0-1.21,5.52,11,11,0,0,0,1.75,6.48,5.4,5.4,0,0,0,4.82,2.43h1.77v-.81l0-1.56v-4a7.86,7.86,0,0,0-.61-3.6Z"/><path class="cls-1" d="M358.16,133.13c-2-2-3.88-4-5.82-5.95-2,1.91-3.94,3.95-6,5.81,1.93,2,3.91,4,5.88,6C354.16,137,356.25,135.16,358.16,133.13Z"/></svg>